<svg xmlns="http://www.w3.org/2000/svg" xmlns:xlink="http://www.w3.org/1999/xlink" width="74" height="61" viewBox="0 0 74 61"><defs><path id="37x1a" d="M1016.1 7401h-61.2c-2.7 0-4.9-2.17-4.9-4.84v-38.66c0-2.67 2.2-4.83 4.9-4.83h14.84s-.15-.3-.15-3.63a6.08 6.08 0 0 1 6.12-6.04h19.58c3.38 0 6.12 2.7 6.12 6.04s.16 3.63.16 3.63h14.53c2.7 0 4.9 2.16 4.9 4.83v38.66c0 2.67-2.2 4.84-4.9 4.84zm-30.5-9.73a14.6 14.6 0 0 0 14.7-14.5c0-8.01-6.58-14.5-14.7-14.5a14.6 14.6 0 0 0-14.68 14.5c0 8 6.58 14.5 14.69 14.5z"/></defs><g><g clip-path="url(#clip-869)" transform="translate(-948 -7341)"><use fill="#fff" xlink:href="#37x1a"/></g></g></svg>