<?xml version="1.0" standalone="no"?>
<!DOCTYPE svg PUBLIC "-//W3C//DTD SVG 1.1//EN" "http://www.w3.org/Graphics/SVG/1.1/DTD/svg11.dtd" >
<svg xmlns="http://www.w3.org/2000/svg">
<metadata>Generated by IcoMoon</metadata>
<defs>
<font id="icomoon" horiz-adv-x="1024">
<font-face units-per-em="1024" ascent="960" descent="-64" />
<missing-glyph horiz-adv-x="1024" />
<glyph unicode="&#x20;" horiz-adv-x="512" d="" />
<glyph unicode="&#xe900;" glyph-name="banknote, check, bill, money, cash" d="M1005.28 621.248l-320 320c-15.872 15.872-38.88 22.24-60.672 16.864-11.488-2.816-21.76-8.736-29.888-16.864-7.264-7.264-12.736-16.256-15.872-26.304-14.496-47.008-39.552-87.872-76.64-124.928-49.536-49.504-114.048-87.008-182.304-126.656-72.448-41.984-147.296-85.504-208.64-146.816-52.128-52.192-87.616-110.24-108.416-177.632-7.008-22.752-0.896-47.36 15.872-64.192l320-320c15.872-15.872 38.88-22.24 60.672-16.864 11.488 2.88 21.76 8.736 29.888 16.864 7.264 7.264 12.736 16.256 15.872 26.368 14.528 47.008 39.584 87.872 76.704 124.928 49.504 49.504 113.984 86.944 182.304 126.56 72.384 42.048 147.264 85.568 208.576 146.88 52.128 52.128 87.616 110.24 108.448 177.632 6.976 22.72 0.832 47.424-15.904 64.16zM384 0c-105.984 105.984-214.016 214.048-320 320 90.944 294.432 485.12 281.568 576 576 105.984-105.952 214.048-214.016 320.064-320-90.976-294.368-485.152-281.568-576.064-576zM625.984 483.2c-10.432 8.736-20.928 14.688-31.488 17.632-10.496 2.944-20.992 4.128-31.616 3.36-10.496-0.8-21.248-3.2-32-7.328-10.752-4.192-21.568-8.736-32.448-14.016-17.184 19.744-34.368 39.264-51.552 57.376 7.744 7.008 15.264 10.56 22.496 10.816 7.264 0.32 14.24-0.448 20.864-2.112 6.752-1.696 12.928-3.136 18.624-4.256 5.76-1.12 10.752 0.128 15.136 3.808 4.64 4 7.2 9.184 7.552 15.424 0.32 6.304-2.048 12.448-7.328 18.432-6.752 7.744-14.88 12.448-24.64 14.176-9.632 1.696-19.488 1.568-29.76-0.672-10.112-2.304-19.744-6.112-28.864-11.488s-16.448-10.88-21.888-16.256c-2.080 1.984-4.16 3.936-6.24 5.888-2.304 2.112-5.184 3.264-8.64 3.2-3.488 0-6.368-1.504-8.736-4.256-2.304-2.688-3.36-5.824-2.944-9.12 0.32-3.424 1.696-6.048 4.064-8.064 2.080-1.76 4.16-3.488 6.24-5.312-8.192-9.888-14.944-20.8-20.256-32.32-5.376-11.552-8.576-23.008-9.76-34.112-1.248-11.2-0.064-21.44 3.36-30.944 3.424-9.568 9.76-17.696 19.008-25.376 15.072-12.512 32.8-17.824 53.376-16.64 20.512 1.248 42.624 7.36 66.4 20.128 18.88-21.824 37.824-43.488 56.736-63.616-8-6.752-15.008-10.624-21.184-11.872-6.176-1.312-11.68-1.184-16.672 0.32-4.992 1.568-9.632 3.808-13.888 6.688-4.256 2.944-8.448 5.44-12.64 7.488-4.128 2.048-8.384 3.2-12.736 3.264s-8.992-2.048-14.112-6.432c-5.248-4.576-7.872-9.888-7.872-15.872 0-5.952 2.752-12 8.128-18.112 5.44-6.112 12.512-11.264 21.056-15.328s18.208-6.624 28.832-7.328c10.624-0.736 21.824 0.864 33.632 5.248 11.872 4.32 23.616 12.128 35.2 23.744 5.568-5.44 11.2-10.624 16.8-15.616 2.368-2.048 5.248-3.072 8.736-2.816 3.36 0.128 6.304 1.696 8.64 4.512 2.368 2.88 3.36 6.048 3.008 9.376-0.32 3.36-1.696 5.952-4 7.808-5.632 4.512-11.264 9.248-16.864 14.24 9.568 11.744 17.248 24.128 22.944 36.384 5.696 12.32 9.056 24.192 10.176 35.2 1.12 11.072-0.192 21.056-3.808 30.112-3.584 9.184-9.952 17.056-19.072 24.64zM447.072 461.504c-9.056-0.384-16.96 2.624-23.872 9.312-2.944 2.816-4.992 6.24-6.24 10.304-1.312 4.064-1.76 8.512-1.248 13.376 0.448 4.8 1.888 9.824 4.384 14.88 2.368 5.056 5.888 10.112 10.368 15.008 16.224-16.128 32.416-33.824 48.64-52.128-12.288-6.752-22.976-10.368-32.032-10.752zM598.016 397.44c-2.88-5.312-6.176-10.048-10.048-14.176-17.952 18.112-35.872 38.016-53.76 58.432 4.576 2.048 9.376 4.192 14.56 6.368s10.368 3.616 15.552 4.512c5.312 0.8 10.56 0.576 15.808-0.672 5.184-1.312 10.112-4.128 14.688-8.576 4.512-4.512 7.36-9.184 8.512-14.24 1.248-5.12 1.312-10.304 0.448-15.616-0.928-5.344-2.816-10.656-5.76-16.032zM470.944 250.24c6.304 5.088 15.584 4.832 21.376-1.056 6.272-6.24 6.272-16.448 0-22.688-0.512-0.512-1.056-0.864-1.632-1.312l0.064-0.064c-20.256-15.392-36.896-29.248-54.848-47.2-16.224-16.192-30.88-33.248-43.552-50.56l-20.448-28c-0.64-1.152-1.408-2.208-2.368-3.2-6.272-6.24-16.48-6.24-22.72 0-5.44 5.44-6.112 13.824-2.112 20.064l-0.064 0.064 21.888 29.888c13.664 18.688 29.376 36.992 46.752 54.368 18.080 18.144 37.6 34.336 57.6 49.696h0.064zM588.096 713.12c16.192 16.192 30.816 33.184 43.52 50.592l21.248 29.12c0.768 1.376 1.632 2.752 2.816 3.936 6.304 6.304 16.512 6.304 22.816 0 5.984-6.016 6.24-15.52 0.8-21.888l0.064-0.064-21.888-30.016c-13.696-18.688-29.376-36.928-46.752-54.304-18.080-18.080-37.568-34.336-57.568-49.696l-0.128 0.064c-6.368-5.856-16.256-5.728-22.368 0.448-6.304 6.304-6.304 16.576 0 22.88 1.12 1.184 2.432 2.016 3.744 2.752 18.816 14.368 36.96 29.44 53.696 46.176z" />
<glyph unicode="&#xe901;" glyph-name="bulb" horiz-adv-x="714" d="M684.651 584.93c0-119.070-109.544-247.665-149.79-359.591-59.535-166.221-51.2-265.526-177.652-265.526-124.547 0-118.117 99.78-177.652 266.24-40.007 111.926-149.79 238.854-149.79 358.876 0 180.841 146.601 327.442 327.442 327.442s327.442-146.601 327.442-327.442v0zM445.083 138.895l7.859 26.195-184.32-22.861 0.476-0.953c6.668-23.1 12.383-40.96 17.622-56.201l147.647 18.337c3.334 10.478 6.906 22.147 10.716 35.721zM462.467 196.048c3.096 10.24 6.906 20.956 10.478 31.673h-230.995c6.668-20.004 12.621-38.817 18.099-56.677zM423.888 72.216l-126.214-15.717c15.479-33.578 29.291-37.15 59.535-37.15 35.245 0 48.342 3.81 66.679 53.105zM546.054 382.75c38.817 69.775 79.062 142.169 79.062 202.419-6.225 143.15-123.788 256.847-267.907 256.847s-261.682-113.697-267.888-256.287l-0.019-0.56c0-60.726 40.246-132.644 79.062-202.18 14.132-23.832 30.803-55.205 46.307-87.248l3.702-8.484h277.909c19.313 40.458 35.979 71.669 53.726 102.175l-3.716-6.919zM372.212 748.77c0-8.335-6.668-15.003-15.003-15.003-82.146-0.135-148.702-66.691-148.837-148.824v-0.013c0-8.22-6.664-14.884-14.884-14.884s-14.884 6.664-14.884 14.884v0c0 98.641 79.964 178.605 178.605 178.605v0c8.335 0 14.765-6.668 14.765-14.765z" />
<glyph unicode="&#xe902;" glyph-name="mail-envelope-closed" d="M226.462 610.462l25.846 25.846 275.692-236.308 275.692 236.308 25.846-25.846-301.538-258.462-301.538 258.462zM192.115 704c-35.41 0-64.115-28.624-64.115-63.81v-384.38c0-35.241 28.472-63.81 64.115-63.81h671.77c35.41 0 64.115 28.624 64.115 63.81v384.38c0 35.241-28.472 63.81-64.115 63.81h-671.77z" />
<glyph unicode="&#xe903;" glyph-name="pen, pencil, write, blog" d="M940.64 877.44c-52.64 52.576-121.952 82.56-190.272 82.56-57.632 0-110.688-21.376-149.44-60.064l-155.744-156.928c-0.48-0.448-1.024-0.736-1.504-1.216-0.256-0.256-0.416-0.608-0.672-0.832l0.064-0.064-330.528-333.088c-15.232-15.136-26.272-33.984-32.416-54.56l-75.168-272.256c-0.064-0.736-4.96-22.112-4.96-32.992 0-61.824 50.208-112 112.128-112 12.32 0 36.16 5.888 37.024 6.016l271.296 71.328c20.608 6.112 39.328 17.248 54.56 32.512l488.416 492.256c88.832 88.896 78.816 237.888-22.784 339.328zM512.448 198.56c-2.624 28.864-10.784 57.184-23.008 84.064l302.56 302.528c18.496-58.432 8.992-119.552-31.552-160.128-0.256-0.256-0.576-0.416-0.8-0.672l0.448-0.416-247.296-249.28c0 7.968 0.384 15.776-0.352 23.904zM473.376 311.808c-11.936 19.616-25.504 38.56-42.304 55.328-19.552 19.552-41.984 34.88-65.408 47.744l305.024 305.024c23.936-10.624 46.88-25.76 67.136-46.016 17.312-17.248 30.688-36.576 40.992-56.672l-305.44-305.408zM335.552 430.016c-29.632 11.936-60.672 18.752-91.776 19.168l246.496 248.384c37.728 36.8 92.672 47.392 146.784 33.984l-301.504-301.536zM133.344 4.064c-3.488-0.8-14.336-3.552-21.696-4.064-26.304 0.32-47.648 21.696-47.648 48 0.384 5.376 2.528 14.624 3.264 17.984l33.696 122.048c36.576 0.992 75.936-13.248 106.88-44.256 31.424-31.36 46.208-71.488 44.608-108.512l-119.104-31.2zM283.968 43.616c-0.768 42.944-18.24 87.616-53.504 122.816-33.344 33.376-76.992 52.64-120.512 54.368l31.872 115.424c2.304 7.68 6.88 15.264 12.512 21.888 64.192 45.952 162.912 32.384 231.488-36.256 72.544-72.512 83.744-178.752 27.872-242.176-3.712-1.952-7.456-3.808-11.488-4.992l-118.24-31.072zM918.112 583.296l-53.888-54.304c0 7.232 0.864 14.176 0.192 21.568-5.632 61.92-34.496 121.792-81.376 168.608-52.128 52.16-121.248 82.080-189.696 82.272l52.992 53.44c26.528 26.464 63.552 41.12 104.032 41.12 51.488 0 104.384-23.296 145.056-63.84 38.176-38.112 60.928-85.472 64.192-133.376 3.008-44.704-11.744-85.696-41.504-115.488z" />
<glyph unicode="&#xe904;" glyph-name="pinterest" d="M441.19 295.578c-26.931-141.005-59.75-276.173-157.082-346.778-30.003 213.094 44.083 373.094 78.541 542.976-58.726 98.816 7.066 297.574 130.816 248.576 152.32-60.211-131.891-367.206 58.88-405.606 199.219-39.987 280.525 345.6 156.979 470.989-178.432 181.146-519.475 4.25-477.491-255.078 10.189-63.386 75.674-82.586 26.163-170.086-114.227 25.293-148.326 115.405-143.923 235.52 7.066 196.608 176.589 334.182 346.675 353.28 215.091 24.115 416.973-79.002 444.877-281.293 31.386-228.403-97.075-475.802-327.117-457.984-62.362 4.864-88.474 35.789-137.318 65.485z" />
<glyph unicode="&#xe905;" glyph-name="film" d="M76.8 883.2h870.4v-870.4h-870.4zM314.182 487.564h395.636v316.509h-395.636zM314.182 91.927h395.636v316.509h-395.636zM788.945 724.945h79.127v79.127h-79.127zM788.945 606.255h79.127v79.127h-79.127zM788.945 487.564h79.127v79.127h-79.127zM788.945 329.309h79.127v79.127h-79.127zM788.945 210.618h79.127v79.127h-79.127zM788.945 91.927h79.127v79.127h-79.127zM155.927 724.945h79.127v79.127h-79.127zM155.927 606.255h79.127v79.127h-79.127zM155.927 487.564h79.127v79.127h-79.127zM155.927 329.309h79.127v79.127h-79.127zM155.927 210.618h79.127v79.127h-79.127zM155.927 91.927h79.127v79.127h-79.127z" />
<glyph unicode="&#xe906;" glyph-name="chevron-thin-right" d="M678.4 460.8l-365.619 379.904c-13.722 13.824-13.722 36.198 0 50.125 13.722 13.824 35.891 13.824 49.613 0l400.896-404.89c13.722-13.875 13.722-36.301 0-50.125l-400.896-404.89c-13.722-13.875-35.891-13.824-49.613 0-13.722 13.773-13.722 36.198 0 50.125l365.619 379.75z" />
<glyph unicode="&#xe907;" glyph-name="chevron-thin-left" d="M711.219 80.998c13.722-13.926 13.722-36.301 0-50.125s-35.891-13.875-49.613 0l-400.896 404.89c-13.722 13.824-13.722 36.198 0 50.125l400.896 404.89c13.722 13.824 35.891 13.824 49.613 0 13.722-13.875 13.722-36.301 0-50.125l-365.619-379.853 365.619-379.802z" />
<glyph unicode="&#xe908;" glyph-name="lab" d="M889.417 566.199c13.419-13.176 21.735-31.51 21.735-51.785s-8.316-38.609-21.724-51.774l-40.971-40.971c-13.138-13.466-31.465-21.818-51.743-21.818-14.957 0-28.852 4.544-40.381 12.326l0.256-0.163-156.233-391.461c-13.178-32.666-44.618-55.298-81.345-55.298-0.202 0-0.404 0.001-0.606 0.002h-2.017c-23.393 0.577-44.405 10.312-59.678 25.739l-0.007 0.007-372.151 368.055c-15.987 15.901-25.881 37.913-25.881 62.237 0 35.602 21.197 66.254 51.66 80.022l0.553 0.223 397.312 159.159c-7.001 10.961-11.159 24.326-11.159 38.663 0 20.254 8.299 38.57 21.681 51.732l0.010 0.010 41.545 40.96c13.163 13.33 31.437 21.587 51.639 21.587s38.476-8.256 51.631-21.579l0.008-0.008zM684.325 388.608c-122.88 130.779-245.175 91.575-367.762 132.242l-181.979-72.85c-10.302-4.679-17.337-14.877-17.337-26.719 0-8.074 3.271-15.385 8.56-20.678v0l372.151-368.347c5.289-5.264 12.583-8.519 20.637-8.519 2.12 0 4.187 0.225 6.179 0.654l-0.192-0.035c9.793 2.039 17.667 8.753 21.287 17.651l0.070 0.196zM848.165 524.946l-225.865 225.865c-2.651 2.673-6.326 4.327-10.386 4.327s-7.735-1.654-10.385-4.326l-41.254-41.254c-2.586-2.636-4.182-6.252-4.182-10.24s1.596-7.604 4.184-10.242l-0.002 0.002 50.030-50.322-248.393-99.474c24.869-5.559 49.737-8.777 76.069-11.703 80.457-10.24 169.984-21.358 258.048-109.129l-3.511-8.777 41.838 104.741 51.785-51.493c5.851-5.851 14.921-5.851 20.48 0l41.545 41.253c2.586 2.636 4.182 6.252 4.182 10.24s-1.596 7.604-4.184 10.242l0.002-0.002zM468.114 360.229c0 40.396 32.747 73.143 73.143 73.143s73.143-32.747 73.143-73.143v0c0-40.396-32.747-73.143-73.143-73.143s-73.143 32.747-73.143 73.143v0zM497.371 360.229c0-24.237 19.648-43.886 43.886-43.886s43.886 19.648 43.886 43.886v0c0 24.237-19.648 43.886-43.886 43.886s-43.886-19.648-43.886-43.886v0zM994.743 828.343c0-40.396-32.747-73.143-73.143-73.143s-73.143 32.747-73.143 73.143v0c0 40.396 32.747 73.143 73.143 73.143s73.143-32.747 73.143-73.143v0zM965.486 828.343c0 24.237-19.648 43.886-43.886 43.886s-43.886-19.648-43.886-43.886v0c0-24.237 19.648-43.886 43.886-43.886s43.886 19.648 43.886 43.886v0zM351.086 462.629c32.317 0 58.514-26.198 58.514-58.514s-26.198-58.514-58.514-58.514v0c-32.317 0-58.514 26.198-58.514 58.514s26.198 58.514 58.514 58.514v0zM321.829 404.114c0-16.158 13.099-29.257 29.257-29.257s29.257 13.099 29.257 29.257v0c0 16.158-13.099 29.257-29.257 29.257s-29.257-13.099-29.257-29.257v0zM409.6 228.571c0 16.158 13.099 29.257 29.257 29.257s29.257-13.099 29.257-29.257v0c0-16.158-13.099-29.257-29.257-29.257s-29.257 13.099-29.257 29.257v0zM936.229 667.429c0-16.158-13.099-29.257-29.257-29.257s-29.257 13.099-29.257 29.257v0c0 16.158 13.099 29.257 29.257 29.257s29.257-13.099 29.257-29.257v0z" />
<glyph unicode="&#xe909;" glyph-name="like" d="M994.743 494.811l-0.293-14.629-0.585-6.144c-0.705-24.526-10.003-46.752-24.971-63.901l0.103 0.12c11.118-20.48 15.506-45.349 11.703-69.339-3.958-31.912-18.304-59.905-39.494-81.039l-0.003-0.003c7.899-18.725 11.118-44.763 0-79.872-6.437-21.065-16.677-53.833-47.982-75.483 4.974-19.017 3.511-38.034-0.878-51.493-5.266-17.554-11.995-30.72-12.288-31.305-21.065-37.742-56.174-56.466-105.033-56.466h-159.744c-62.442 0.859-122.708 8.169-180.77 21.292l5.812-1.104c-69.339 15.799-101.522 23.406-118.491 27.794l-1.463 0.293-7.022 2.048h-1.17c-13.986-29.798-43.654-50.109-78.088-50.322h-87.799c-48.475 0-87.771 39.297-87.771 87.771v0 468.114c0 48.475 39.297 87.771 87.771 87.771v0h87.771c21.065 0 41.838-9.362 57.051-21.943l30.72 15.214c98.304 51.493 116.443 153.307 117.029 212.114 0.656 48.091 39.633 86.862 87.74 87.186h0.031c67.584 0 144.238-92.453 144.238-197.486 0-43.886-1.463-68.462-7.314-95.963 125.806-3.511 211.822-3.218 248.101-12.873 46.453-11.325 80.781-51.524 83.081-100.108l0.009-0.244zM263.314 521.143c0 16.158-13.099 29.257-29.257 29.257v0h-87.771c-16.158 0-29.257-13.099-29.257-29.257v0-468.114c0-16.158 13.099-29.257 29.257-29.257v0h87.771c16.158 0 29.257 13.099 29.257 29.257v0zM936.229 494.811c0 8.777-2.926 35.401-34.816 44.763-25.746 6.729-23.698 10.825-316.27 10.825 24.283 72.265 27.209 84.261 27.209 153.6 0 76.946-54.711 138.971-85.723 138.971-16.158 0-29.257-13.099-29.257-29.257v0c-1.17-99.474-41.838-220.891-175.543-276.187l-5.851-2.341c-14.629-4.389-23.406-16.677-23.406-30.427v-404.041c0-21.65 24.869-26.039 24.869-26.039 7.607-2.048 14.043-4.096 135.753-32.183 2.048-0.585 81.92-18.725 162.085-18.725h159.744c30.427 0 44.471 9.655 53.248 25.454 0.293 0.585 4.681 9.362 8.192 21.065 3.511 11.118 2.048 41.253-30.135 41.253h-45.641c-8.079 0-14.629 6.549-14.629 14.629s6.549 14.629 14.629 14.629v0h47.982c62.025 0 67.877 27.502 77.239 57.051 7.022 22.235 11.41 59.977-38.034 59.977h-57.929c-8.079 0-14.629 6.549-14.629 14.629s6.549 14.629 14.629 14.629v0h69.632c49.152 0 59.392 41.253 63.195 63.195 2.926 17.554-2.926 53.833-46.811 53.833h-56.759c-8.079 0-14.629 6.549-14.629 14.629s6.549 14.629 14.629 14.629v0h58.514c51.2 0 57.344 28.379 57.929 43.008 0.293 9.655 0.585 8.192 0.585 18.432zM234.057 96.914c0-24.237-19.648-43.886-43.886-43.886s-43.886 19.648-43.886 43.886v0c0 24.237 19.648 43.886 43.886 43.886s43.886-19.648 43.886-43.886v0zM204.8 96.914c0 8.079-6.549 14.629-14.629 14.629s-14.629-6.549-14.629-14.629v0c0-8.079 6.549-14.629 14.629-14.629s14.629 6.549 14.629 14.629v0z" />
<glyph unicode="&#xe90d;" glyph-name="params" d="M351.086 608.914c0-47.689-23.406-89.527-58.514-116.443v-439.442c0-48.475-39.297-87.771-87.771-87.771s-87.771 39.297-87.771 87.771v0 439.442c-35.566 26.805-58.319 68.967-58.319 116.443s22.753 89.639 57.95 116.177l0.369 0.267v88.357c0 48.475 39.297 87.771 87.771 87.771s87.771-39.297 87.771-87.771v0-88.357c35.109-26.624 58.514-68.754 58.514-116.443zM175.543 752.274c8.796 1.831 18.904 2.879 29.257 2.879s20.461-1.048 30.224-3.044l-0.967 0.165v61.44c0 16.158-13.099 29.257-29.257 29.257s-29.257-13.099-29.257-29.257v0zM234.057 465.554c-8.795-1.918-18.898-3.017-29.257-3.017s-20.462 1.099-30.198 3.186l0.941-0.169v-412.526c0-16.158 13.099-29.257 29.257-29.257s29.257 13.099 29.257 29.257v0zM292.571 608.914c0 8.777-1.463 16.677-3.803 24.576l-1.463 4.681c-2.919 8.261-6.678 15.419-11.3 21.921l0.183-0.27-0.585 0.293c-5.12 7.058-11.007 13.131-17.645 18.282l-0.202 0.15h-0.293c-14.479 11.055-32.751 17.823-52.59 18.139l-0.073 0.001c-19.9-0.022-38.23-6.73-52.867-17.998l0.204 0.151v-0.293c-7.022-5.266-13.166-11.703-18.139-18.432l-0.585-0.293c-4.44-6.231-8.199-13.389-10.927-21.037l-0.191-0.613-1.463-4.681c-2.341-7.899-3.803-15.799-3.803-24.576s1.463-16.677 3.803-24.576l1.463-4.681c2.926-7.607 6.437-14.921 11.118-21.358l0.585-0.585c4.974-7.022 11.118-13.166 17.847-18.432h0.293c14.44-11.093 32.771-17.777 52.663-17.777s38.223 6.684 52.869 17.929l-0.206-0.152c7.022 5.266 13.166 11.703 18.139 18.432l0.585 0.585c4.681 6.437 8.192 13.751 11.118 21.358l1.463 4.681c2.341 7.899 3.803 16.091 3.803 24.576zM994.743 608.914c0-47.689-23.406-89.527-58.514-116.443v-439.442c0-48.475-39.297-87.771-87.771-87.771s-87.771 39.297-87.771 87.771v0 439.442c-35.566 26.805-58.319 68.967-58.319 116.443s22.753 89.639 57.95 116.177l0.369 0.267v88.357c0 48.475 39.297 87.771 87.771 87.771s87.771-39.297 87.771-87.771v0-88.357c35.109-26.624 58.514-68.754 58.514-116.443zM819.2 752.274c8.796 1.831 18.904 2.879 29.257 2.879s20.461-1.048 30.224-3.044l-0.967 0.165v61.44c0 16.158-13.099 29.257-29.257 29.257s-29.257-13.099-29.257-29.257v0zM877.714 465.554c-8.795-1.918-18.898-3.017-29.257-3.017s-20.462 1.099-30.198 3.186l0.941-0.169v-412.526c0-16.158 13.099-29.257 29.257-29.257s29.257 13.099 29.257 29.257v0zM936.229 608.914c0 8.777-1.463 16.677-3.803 24.576l-1.463 4.681c-2.919 8.261-6.678 15.419-11.3 21.921l0.183-0.27-0.585 0.293c-5.12 7.058-11.007 13.131-17.645 18.282l-0.202 0.15h-0.293c-14.479 11.055-32.751 17.823-52.59 18.139l-0.073 0.001c-19.9-0.022-38.23-6.73-52.867-17.998l0.204 0.151v-0.293c-7.022-5.266-13.166-11.703-18.139-18.432l-0.585-0.293c-4.44-6.231-8.199-13.389-10.927-21.037l-0.191-0.613-1.463-4.681c-2.341-7.899-3.803-15.799-3.803-24.576s1.463-16.677 3.803-24.576l1.463-4.681c2.926-7.607 6.437-14.921 11.118-21.358l0.585-0.585c4.974-7.022 11.118-13.166 17.847-18.432h0.293c14.44-11.093 32.771-17.777 52.663-17.777s38.223 6.684 52.869 17.929l-0.206-0.152c7.022 5.266 13.166 11.703 18.139 18.432l0.585 0.585c4.681 6.437 8.192 13.751 11.118 21.358l1.463 4.681c2.341 7.899 3.803 16.091 3.803 24.576zM672.914 257.829c0-47.689-23.406-89.527-58.514-116.443v-88.357c0-48.475-39.297-87.771-87.771-87.771s-87.771 39.297-87.771 87.771v0 88.357c-35.566 26.805-58.319 68.967-58.319 116.443s22.753 89.639 57.95 116.177l0.369 0.267v439.442c0 48.475 39.297 87.771 87.771 87.771s87.771-39.297 87.771-87.771v0-439.442c35.109-26.624 58.514-68.754 58.514-116.443zM497.371 401.189c8.796 1.831 18.904 2.879 29.257 2.879s20.461-1.048 30.224-3.044l-0.967 0.165v412.526c0 16.158-13.099 29.257-29.257 29.257s-29.257-13.099-29.257-29.257v0zM555.886 114.469c-8.795-1.895-18.899-2.98-29.257-2.98s-20.462 1.085-30.205 3.148l0.948-0.168v-61.44c0-16.158 13.099-29.257 29.257-29.257s29.257 13.099 29.257 29.257v0zM614.4 257.829c0 8.777-1.463 16.677-3.803 24.576l-1.463 4.681c-2.926 7.607-6.437 14.921-11.118 21.65l-0.585 0.293c-5.12 7.058-11.007 13.131-17.645 18.282l-0.202 0.15h-0.293c-14.479 11.055-32.751 17.823-52.59 18.139l-0.073 0.001c-19.893-0.091-38.204-6.785-52.874-18.002l0.212 0.155v-0.293c-7.022-5.266-13.166-11.703-18.139-18.432l-0.585-0.293c-4.681-6.729-8.192-14.043-11.118-21.65l-1.463-4.681c-2.341-7.899-3.803-15.799-3.803-24.576s1.463-16.677 3.803-24.576l1.463-4.681c2.926-7.607 6.437-14.921 11.118-21.358l0.585-0.585c16.155-21.871 41.84-35.898 70.802-35.898s54.647 14.027 70.633 35.659l0.169 0.239 0.585 0.585c4.681 6.437 8.192 13.751 11.118 21.358l1.463 4.681c2.341 7.899 3.803 16.091 3.803 24.576z" />
<glyph unicode="&#xe90f;" glyph-name="camera" d="M304 352c0-114.876 93.124-208 208-208s208 93.124 208 208-93.124 208-208 208-208-93.124-208-208zM960 704h-224c-16 64-32 128-96 128h-256c-64 0-80-64-96-128h-224c-35.2 0-64-28.8-64-64v-576c0-35.2 28.8-64 64-64h896c35.2 0 64 28.8 64 64v576c0 35.2-28.8 64-64 64zM512 68c-156.85 0-284 127.148-284 284 0 156.85 127.15 284 284 284 156.852 0 284-127.15 284-284 0-156.852-127.146-284-284-284zM960 512h-128v64h128v-64z" />
<glyph unicode="&#xe912;" glyph-name="shape-1" horiz-adv-x="1295" d="M1154.409-32.376h-1013.76c-0.18-0.001-0.392-0.002-0.605-0.002-44.367 0-80.373 35.796-80.713 80.083v640.634c0 43.972 36.442 80.113 81.318 80.113h245.76s-2.409 4.518-2.409 59.934c0 55.115 45.176 99.991 101.195 99.991h324.668c0.179 0.001 0.392 0.002 0.604 0.002 55.345 0 100.251-44.695 100.591-99.96v-0.032c0-55.416 2.711-60.235 2.711-60.235h240.941c44.574 0 80.715-35.84 80.715-79.812v-640.602c0-44.273-36.141-80.113-81.016-80.113zM649.336 128.753c0.449-0.003 0.979-0.005 1.511-0.005 133.039 0 240.988 107.423 241.84 240.262v0.081c0 132.518-109.026 240.038-243.351 240.038-0.449 0.003-0.981 0.005-1.513 0.005-132.933 0-240.817-107.253-241.837-239.945l-0.001-0.097c0-132.518 109.026-240.339 243.351-240.339z" />
<glyph unicode="&#xe914;" glyph-name="slideshow" horiz-adv-x="1158" d="M1032.904 13.023h-794.713c-41.801 0-75.687 33.886-75.687 75.687h794.713c41.85 0 75.687 33.837 75.687 75.687v605.496c41.85 0 75.687-34.282 75.687-75.687v-605.496c0-41.85-33.837-75.687-75.687-75.687zM919.374 126.553h-794.713c-41.801 0-75.687 33.886-75.687 75.687v0 605.496c0 41.85 33.837 75.687 75.687 75.687h794.713c41.85 0 75.687-33.837 75.687-75.687v-605.496c0-41.85-33.837-75.687-75.687-75.687zM919.374 807.736h-794.713v-605.496h794.713zM338.365 344.71l113.085 193.224 113.085-120.209 155.826 247.096 162.504-425.628h-721.252l92.16 194.115zM276.035 694.205c41.801 0 75.687-33.886 75.687-75.687s-33.886-75.687-75.687-75.687c0 0 0 0 0 0v0c-41.801 0-75.687 33.886-75.687 75.687s33.886 75.687 75.687 75.687v0z" />
<glyph unicode="&#xe915;" glyph-name="user3" d="M995.52 53.248c-6.432 4.256-123.136 80.8-296.736 118.368 63.68 80.672 104.576 189.184 121.952 261.408 24.128 100.096 14.752 295.936-81.376 417.984-56.192 71.328-134.816 108.992-227.36 108.992s-171.168-37.696-227.328-108.992c-96.128-122.016-105.472-317.856-81.376-417.952 17.376-72.224 58.24-180.736 121.952-261.408-173.6-37.568-290.304-114.112-296.704-118.368-23.456-15.616-33.952-44.8-25.76-71.744 8.128-27.040 33.056-45.536 61.216-45.536h896c28.192 0 53.056 18.496 61.248 45.504 8.224 26.944-2.272 56.128-25.728 71.744zM648.544 211.264l-10.432-13.248c-76.32-87.68-175.84-87.68-252.128 0l-10.464 13.248c-89.12 112.928-133.344 262.304-114.304 404.8 17.44 136.928 95.904 279.936 250.784 279.936s233.376-143.040 250.816-279.968c18.976-142.56-25.088-291.776-114.272-404.768zM64 0c4.416 2.944 112.832 74.048 274.752 109.056l79.488 17.184c28.384-18.624 59.52-30.24 93.76-30.24 34.272 0 65.376 11.616 93.76 30.24l79.488-17.184c160.64-34.752 268.672-105.056 274.752-109.056h-896z" />
<glyph unicode="&#xe916;" glyph-name="star" horiz-adv-x="1059" d="M990.102 497.788l-183.261-182.908 42.372-253.528c0.582-3.32 0.915-7.142 0.915-11.043 0-22.88-11.454-43.086-28.941-55.195l-0.223-0.146c-11.103-7.614-24.83-12.16-39.618-12.16-12.403 0-24.059 3.197-34.189 8.813l0.362-0.184-217.865 117.23-217.865-117.583c-9.7-5.225-21.228-8.296-33.473-8.296-14.908 0-28.754 4.551-40.222 12.34l0.25-0.16c-17.709 12.255-29.163 32.46-29.163 55.341 0 3.9 0.333 7.723 0.972 11.441l-0.057-0.398 42.372 253.528-183.614 182.908c-12.033 12.016-19.477 28.626-19.477 46.974 0 7.708 1.314 15.11 3.73 21.993l-0.142-0.465c8.474 24.011 29.661 41.666 55.437 45.55l249.997 37.076 108.403 225.633c11.603 23.195 35.18 38.843 62.411 38.843 0.155 0 0.31-0.001 0.465-0.002h-0.024c26.836 0 51.2-15.183 62.852-38.841l108.403-225.986 249.997-36.723c25.777-3.884 46.963-21.186 55.437-45.55 8.121-24.011 2.119-50.494-16.243-68.502zM940.668 545.103l-249.997 37.076c-22.952 3.531-42.372 17.655-52.259 38.135l-108.756 225.28-108.756-225.28c-9.534-20.48-29.308-34.604-52.259-38.135l-249.997-37.076 183.614-182.908c15.183-15.537 21.892-37.076 18.361-58.262l-42.372-253.528 217.865 117.23c9.705 5.307 21.26 8.428 33.545 8.428s23.84-3.121 33.917-8.613l-0.372 0.186 217.865-117.23-42.372 253.528c-3.531 21.186 3.531 42.726 18.714 58.262z" />
<glyph unicode="&#xe919;" glyph-name="world" d="M972.8 448c0-254.493-206.307-460.8-460.8-460.8s-460.8 206.307-460.8 460.8v0c0 254.493 206.307 460.8 460.8 460.8s460.8-206.307 460.8-460.8v0zM811.272 714.57c-34.023-26.426-71.019-48.557-110.988-65.404 20.81-57.476 32.372-120.568 34.023-186.302h178.374c-3.611 97.198-41.451 184.917-101.736 252.077l0.327-0.371zM497.135 47.319v177.053c-42.612-1.321-83.902-7.928-122.88-20.15 30.39-62.101 72.010-115.613 121.228-156.573h1.652zM526.865 848.681v-206.782c46.906 1.652 91.83 9.91 134.441 24.444-31.050 72.671-76.965 135.432-132.79 182.338h-1.652zM688.723 676.914c39.096 16.453 72.822 36.284 103.466 59.918l-1.066-0.79c-56.561 54.874-129.454 93.208-210.699 107.023l-2.359 0.332c45.915-46.245 83.902-102.4 110.988-166.813zM495.484 848.681c-57.129-48.753-102.286-109.807-131.607-179.186l-1.183-3.153c42.612-14.534 87.535-23.123 134.441-24.444v206.782h-1.652zM445.935 843.396c-83.481-14.215-156.251-52.537-212.827-107.451l0.099 0.096c31.050-23.783 65.074-44.263 101.739-59.458 27.366 64.793 64.831 120.157 111.033 166.858l-0.045-0.046zM319.422 462.865h177.714v149.306c-52.518 1.617-102.258 11.287-148.75 27.813l3.408-1.056c-19.819-54.173-30.72-113.631-32.372-176.062zM319.422 433.135c1.982-72.671 17.177-140.717 42.942-201.827 40.030 13.193 86.197 21.429 134.087 22.777l0.685 0.015v179.035zM346.178 193.982c-33.693-13.213-65.404-30.39-94.803-50.539 53.27-45.859 119.528-78.081 192.53-90.507l2.36-0.332c-40.090 40.111-73.593 86.81-98.745 138.333l-1.342 3.045zM528.516 47.649c50.266 42.659 91.079 94.773 119.991 153.778l1.237 2.795c-36.545 11.558-78.671 18.725-122.308 19.808l-0.572 0.011v-176.723h1.652zM578.065 52.604c75.241 12.819 141.377 45.031 195.082 91.278l-0.522-0.44c-27.337 19.278-58.575 36.265-91.732 49.461l-3.070 1.078c-26.397-54.559-59.794-101.258-99.774-141.394l0.016 0.016zM704.578 433.135h-177.714v-179.035c46.906-1.321 92.49-9.249 135.102-23.123 25.581 59.59 41.203 128.82 42.929 201.491l0.013 0.667zM704.578 462.865c-1.436 63.509-13.18 123.828-33.616 179.972l1.244-3.91c-45.585-15.855-94.472-25.105-145.342-26.426v-149.636zM111.319 462.865h178.374c1.652 66.065 13.213 128.826 34.023 186.302-42.379 18.149-78.931 40.074-112.021 66.19l1.033-0.786c-59.958-66.789-97.798-154.508-101.388-250.982l-0.021-0.723zM229.244 163.592c32.372 23.123 67.386 42.942 105.043 57.476-26.66 62.543-42.89 135.183-44.582 211.41l-0.012 0.657h-178.374c3.869-105.708 48.215-200.362 117.9-269.519l0.025-0.025zM912.681 433.135h-178.374c-1.982-75.974-17.837-147.654-44.594-212.067 37.657-14.865 72.671-34.354 105.043-57.476 69.71 69.181 114.056 163.835 117.904 268.828l0.021 0.715z" />
<glyph unicode="&#xe91a;" glyph-name="team" horiz-adv-x="931" d="M687.321 281.367c134.361-19.859 161.978-63.612 187.423-87.971 25.29-24.359 24.669-135.602 24.669-135.602l-381.362-0.465 36.771 89.988-51.2 213.178c0-38.788-20.015-32.582-20.015-32.582h-32.427c-25.445 0-23.893 19.704-22.807 25.755v0l-39.564-206.352 34.909-90.143-392.844-0.621s6.827 112.485 32.116 136.844c25.445 24.359 51.2 68.112 185.561 87.971 134.516 20.015 124.742 91.074 129.086 88.902-0.776 26.841-3.413 64.698-3.413 64.698s-54.924 29.789-75.559 88.747c-43.287 17.532-37.547 28.703-41.891 51.2 0 0-13.033 91.539 16.291 89.678 0 0 20.015 0 15.36 21.101-1.552 34.909-4.655 95.418-2.482 118.846 2.327 23.273 13.343 86.264 62.061 95.728 48.873 9.309 29.324 4.655 45.615 6.982s11.636 11.636 41.891 11.636l62.681 10.085c30.099 0 49.648-44.839 65.784-47.166 16.291-2.327 16.446 7.137 49.648 0.931 48.873-9.309 42.046-73.542 44.373-96.815s3.879-83.937-0.776-105.038c-4.655-20.945 9.93-18.618 9.93-18.618 34.754 0 17.532-89.522 17.532-89.522-5.275-23.738-7.758-26.686-40.184-47.166-20.48-58.958-76.335-95.263-76.335-95.263s0.31-44.994 0-55.699c0.931-4.189-6.672-74.473 119.156-93.091zM480.97-32.97h-22.497l-34.909 90.298h94.332z" />
<glyph unicode="&#xe91b;" glyph-name="google2" d="M101.837 686.643c0-76.493 25.549-131.686 75.878-164.096 41.267-26.624 89.088-30.618 113.971-30.618 6.042 0 10.906 0.307 14.285 0.512 0 0-7.885-51.405 30.208-102.195h-1.741c-65.997 0-281.242-13.773-281.242-190.822 0-180.019 197.683-189.184 237.363-189.184 3.123 0 4.966 0.102 4.966 0.102 0.41 0 3.226-0.102 8.090-0.102 25.446 0 91.238 3.174 152.32 32.922 79.258 38.4 119.45 105.421 119.45 198.912 0 90.317-61.235 144.077-105.933 183.398-27.29 24.013-50.893 44.698-50.893 64.819 0 20.48 17.254 35.891 39.014 55.398 35.277 31.488 68.557 76.39 68.557 161.28 0 74.598-9.677 124.723-69.325 156.518 6.195 3.174 28.211 5.478 39.066 7.014 32.307 4.403 79.565 9.421 79.565 35.789v5.069h-235.469c-2.355-0.102-238.131-8.806-238.131-224.717zM481.946 225.178c4.506-71.987-57.088-125.082-149.606-131.789-93.952-6.912-171.264 35.379-175.77 107.315-2.202 34.611 13.005 68.403 42.752 95.386 30.157 27.29 71.578 44.186 116.634 47.514 5.325 0.307 10.598 0.614 15.872 0.614 86.989-0.051 145.869-51.149 150.118-119.040zM420.454 735.949c23.091-81.306-11.776-166.195-67.379-181.914-6.4-1.792-12.954-2.662-19.661-2.662-50.893 0-101.325 51.507-120.064 122.522-10.445 39.731-9.574 74.65 2.406 108.134 11.725 33.024 32.922 55.194 59.546 62.72 6.4 1.792 13.005 2.714 19.712 2.714 61.44 0 100.966-25.498 125.44-111.514zM819.2 563.2v153.6h-102.4v-153.6h-153.6v-102.4h153.6v-153.6h102.4v153.6h153.6v102.4h-153.6z" />
<glyph unicode="&#xe91c;" glyph-name="basketball" d="M551.848 64.76v0c-5.147 25.613-7.848 52.111-7.848 79.24 0 108.873 43.496 207.586 114.060 279.711-42.233 59.126-95.072 110.155-155.739 150.309-62.052-124.686-187.268-212.406-333.764-221.279v0c36.25-165.146 183.413-288.741 359.443-288.741 8.012 0 15.964 0.256 23.848 0.76zM583.814 68.205c67.931 10.336 129.758 39.244 180.139 81.383v0c-10.544 90.053-41.3 173.929-87.608 246.97-62.209-65.904-100.345-154.777-100.345-252.558 0-25.982 2.693-51.335 7.814-75.795v0zM880.22 538.943c-44.596 147.070-178.783 255.185-339.043 260.826v0c1.864-15.663 2.823-31.604 2.823-47.768 0-52.434-10.089-102.511-28.431-148.397 64.556-41.952 120.869-95.519 165.976-157.739 55.061 47.913 123.356 81.010 198.675 93.079v0zM888.186 507.795v0c-71.692-10.908-136.586-42.502-188.403-88.503 46.807-72.11 79.127-154.494 92.836-243.027v0c64.002 66.211 103.38 156.375 103.38 255.735 0 25.982-2.693 51.335-7.814 75.795zM163.039 384.484v0 0c137.393 7.002 254.892 89.358 311.985 206.555-68.816 40.353-146.507 67.203-229.437 76.914-53.429-63.88-85.588-146.161-85.588-235.953 0-16.101 1.034-31.961 3.039-47.516zM508.961 799.516c-91.812-4.679-174.74-43.008-236.696-102.896 77.495-12 150.279-38.26 215.585-76.013 15.603 40.807 24.15 85.102 24.15 131.393 0 16.101-1.034 31.961-3.039 47.516v0 0zM133.084 368.050c-3.346 20.823-5.084 42.183-5.084 63.95 0 220.914 179.086 400 400 400s400-179.086 400-400c0-220.914-179.086-400-400-400-193.544 0-354.983 137.46-392.015 320.079-1.072 5.287-2.040 10.611-2.901 15.971v0z" />
<glyph unicode="&#xe91d;" glyph-name="cup2" d="M899.552 799.296l-38.88 116.96c-8.672 26.144-33.12 43.744-60.672 43.744h-576c-27.584 0-52-17.6-60.736-43.744l-39.2-117.024c-33.408-2.144-60.064-29.28-60.064-63.232v-96c0-35.328 28.672-64 64-64h33.088c0-2.4-0.96-4.672-0.672-7.072l64-576c3.584-32.352 30.944-56.928 63.584-56.928h448c32.64 0 60 24.576 63.552 56.928l64 576c0.32 2.4-0.672 4.672-0.672 7.072h33.12c35.328 0 64 28.672 64 64v96c0 34.080-26.88 61.344-60.448 63.296zM224 896h576l32-96h-640l32 96zM288 0l-10.656 96h469.312l-10.656-96h-448zM750.176 128h-476.416l-35.552 320h547.552l-35.584-320zM789.312 480h-554.656l-10.656 96h576l-10.688-96zM896 640h-768v96h768v-96z" />
<glyph unicode="&#xe91e;" glyph-name="connection" horiz-adv-x="1280" d="M640 384c105.87 0 201.87-43.066 271.402-112.598l-90.468-90.468c-46.354 46.356-110.356 75.066-180.934 75.066s-134.578-28.71-180.934-75.066l-90.468 90.468c69.532 69.532 165.532 112.598 271.402 112.598zM187.452 452.548c120.88 120.88 281.598 187.452 452.548 187.452s331.668-66.572 452.55-187.452l-90.51-90.508c-96.706 96.704-225.28 149.96-362.040 149.96-136.762 0-265.334-53.256-362.038-149.962l-90.51 90.51zM988.784 825.562c106.702-45.132 202.516-109.728 284.782-191.996v0l-90.508-90.508c-145.056 145.056-337.92 224.942-543.058 224.942-205.14 0-398-79.886-543.058-224.942l-90.51 90.51c82.268 82.266 178.082 146.862 284.784 191.994 110.504 46.738 227.852 70.438 348.784 70.438s238.278-23.7 348.784-70.438zM576 64c0 35.346 28.654 64 64 64s64-28.654 64-64c0-35.346-28.654-64-64-64s-64 28.654-64 64z" />
<glyph unicode="&#xe942;" glyph-name="phone" d="M704 320c-64-64-64-128-128-128s-128 64-192 128-128 128-128 192 64 64 128 128-128 256-192 256-192-192-192-192c0-128 131.5-387.5 256-512s384-256 512-256c0 0 192 128 192 192s-192 256-256 192z" />
<glyph unicode="&#xe947;" glyph-name="location" d="M512 960c-176.732 0-320-143.268-320-320 0-320 320-704 320-704s320 384 320 704c0 176.732-143.27 320-320 320zM512 448c-106.040 0-192 85.96-192 192s85.96 192 192 192 192-85.96 192-192-85.96-192-192-192z" />
<glyph unicode="&#xe993;" glyph-name="equalizer2" d="M896 512h16c26.4 0 48 21.6 48 48v160c0 26.4-21.6 48-48 48h-16v192h-128v-192h-16c-26.4 0-48-21.6-48-48v-160c0-26.4 21.6-48 48-48h16v-576h128v576zM768 704h128v-128h-128v128zM592 128c26.4 0 48 21.6 48 48v160c0 26.4-21.6 48-48 48h-16v576h-128v-576h-16c-26.4 0-48-21.6-48-48v-160c0-26.4 21.6-48 48-48h16v-192h128v192h16zM448 320h128v-128h-128v128zM272 512c26.4 0 48 21.6 48 48v160c0 26.4-21.6 48-48 48h-16v192h-128v-192h-16c-26.4 0-48-21.6-48-48v-160c0-26.4 21.6-48 48-48h16v-576h128v576h16zM128 704h128v-128h-128v128z" />
<glyph unicode="&#xea90;" glyph-name="facebook2" d="M608 768h160v192h-160c-123.514 0-224-100.486-224-224v-96h-128v-192h128v-512h192v512h160l32 192h-192v96c0 17.346 14.654 32 32 32z" />
<glyph unicode="&#xea96;" glyph-name="twitter2" d="M1024 733.6c-37.6-16.8-78.2-28-120.6-33 43.4 26 76.6 67.2 92.4 116.2-40.6-24-85.6-41.6-133.4-51-38.4 40.8-93 66.2-153.4 66.2-116 0-210-94-210-210 0-16.4 1.8-32.4 5.4-47.8-174.6 8.8-329.4 92.4-433 219.6-18-31-28.4-67.2-28.4-105.6 0-72.8 37-137.2 93.4-174.8-34.4 1-66.8 10.6-95.2 26.2 0-0.8 0-1.8 0-2.6 0-101.8 72.4-186.8 168.6-206-17.6-4.8-36.2-7.4-55.4-7.4-13.6 0-26.6 1.4-39.6 3.8 26.8-83.4 104.4-144.2 196.2-146-72-56.4-162.4-90-261-90-17 0-33.6 1-50.2 3 93.2-59.8 203.6-94.4 322.2-94.4 386.4 0 597.8 320.2 597.8 597.8 0 9.2-0.2 18.2-0.6 27.2 41 29.4 76.6 66.4 104.8 108.6z" />
<glyph unicode="&#xeaa7;" glyph-name="dribbble" d="M512-64c-282.4 0-512 229.6-512 512s229.6 512 512 512c282.4 0 512-229.6 512-512s-229.6-512-512-512v0zM943.8 378c-15 4.8-135.4 40.6-272.4 18.6 57.2-157.2 80.4-285.2 85-311.8 98 66.4 168 171.4 187.4 293.2v0zM682.8 44.8c-6.6 38.4-31.8 172-93.2 331.6-1-0.4-2-0.6-2.8-1-246.8-86-335.4-257-343.2-273 74.2-57.8 167.4-92.4 268.4-92.4 60.6 0 118.4 12.4 170.8 34.8v0zM187 155c10 17 130 215.6 355.4 288.6 5.6 1.8 11.4 3.6 17.2 5.2-11 24.8-23 49.8-35.4 74.2-218.2-65.4-430.2-62.6-449.4-62.4-0.2-4.4-0.2-8.8-0.2-13.4 0-112.2 42.6-214.8 112.4-292.2v0zM84 537c19.6-0.2 199.8-1 404.4 53.2-72.4 128.8-150.6 237.2-162.2 253-122.4-57.8-214-170.6-242.2-306.2v0zM409.6 872.6c12-16.2 91.6-124.4 163.2-256 155.6 58.2 221.4 146.8 229.2 158-77.2 68.6-178.8 110.2-290 110.2-35.2-0.2-69.6-4.4-102.4-12.2v0zM850.6 723.8c-9.2-12.4-82.6-106.4-244.2-172.4 10.2-20.8 20-42 29-63.4 3.2-7.6 6.4-15 9.4-22.6 145.6 18.2 290.2-11 304.6-14-1 103.2-38 198-98.8 272.4v0z" />
<glyph unicode="&#xeaca;" glyph-name="linkedin2" d="M384 576h177.106v-90.782h2.532c24.64 44.194 84.958 90.782 174.842 90.782 186.946 0 221.52-116.376 221.52-267.734v-308.266h-184.61v273.278c0 65.184-1.334 149.026-96.028 149.026-96.148 0-110.82-70.986-110.82-144.292v-278.012h-184.542v576zM64 576h192v-576h-192v576zM256 736c0-53.019-42.981-96-96-96s-96 42.981-96 96c0 53.019 42.981 96 96 96s96-42.981 96-96z" />
<glyph unicode="&#xead0;" glyph-name="stackoverflow" d="M1024 320v-384h-1024v384h128v-256h768v256zM192 256h640v-128h-640zM207.152 394.534l27.698 124.964 624.832-138.496-27.698-124.964zM279.658 651.442l54.092 116.006 580.032-270.464-54.092-116.006zM991.722 598.524l-77.922-101.55-507.746 389.608 56.336 73.418h58.244z" />
</font>
</defs>
</svg>
